<svg width="1440" height="389" viewBox="0 0 1440 389" fill="none" xmlns="http://www.w3.org/2000/svg">
<path fill-rule="evenodd" clip-rule="evenodd" d="M0 0L30 22C60 43 120 87 180 108C240 130 300 130 360 151C420 173 480 216 540 238C600 259 660 259 720 267C780 274 840 288 900 288C960 288 1020 274 1080 274C1140 274 1200 288 1260 295C1320 303 1380 303 1410 303H1440V389H1410C1380 389 1320 389 1260 389C1200 389 1140 389 1080 389C1020 389 960 389 900 389C840 389 780 389 720 389C660 389 600 389 540 389C480 389 420 389 360 389C300 389 240 389 180 389C120 389 60 389 30 389H0V0Z" fill="#0099FF"/>
</svg>
